<svg id="Layer_1" data-name="Layer 1" xmlns="http://www.w3.org/2000/svg" viewBox="0 0 221.99 171.77"><defs><style>.cls-1{fill:#db192b;}</style></defs><title>NU_MonoNU_CMYK_RB</title><path class="cls-1" d="M76.81,129V91.61l145.81,138.1h4.53V106.4c0-27.75,9.28-36.85,27.85-43.91V57.94H194.09v4.55c18.57,7.06,27.85,16.16,27.85,43.91v81.45L93.11,64.09c-5.89-5.46-7.47-6.15-11.32-6.15H33.33v4.55c10.65,1.14,17,4.1,32.38,19.11l5.89,5.69V129Z" transform="translate(-33 -57.94)"/><path class="cls-1" d="M71.6,175.19v4.92c0,27.76-9.28,36.86-27.85,43.91v4.55h60.91V224C86.09,217,76.81,207.87,76.81,180.11v-4.92Z" transform="translate(-33 -57.94)"/><path d="M93.45,164.67l2.47-5.45c.48-1.08.64-1.31,1.15-1.44v-.37H94.49v.37c.85.18.94.61.55,1.53l-1,2.36-1.23-2.78c-.26-.62-.22-1,.68-1.07v-.41H90.06v.41c.41.1.56.27.92,1l2.18,4.71-.37.79a3.19,3.19,0,0,1-.62,1c-.16-.54-.46-.82-.93-.82a.85.85,0,0,0-.88.92,1.08,1.08,0,0,0,1.09,1.08c.83,0,1.36-.42,2-1.82M90,163l-.2-.42a2.33,2.33,0,0,1-.94.24c-.62,0-.77-.32-.77-.75v-3.93h1.66v-.75H88.05v-1.22h-.24l-2.35,1.55v.42h1v4.27c0,.85.49,1.31,1.44,1.31A3.52,3.52,0,0,0,90,163m-5,.18c-.81-.11-.93-.28-.93-1v-5h-.64l-1.93,1.25v.29h.93v3.47c0,.72-.13.89-.93,1v.41H85Zm-1.86-7a1,1,0,0,0,1-1,.88.88,0,0,0-.89-.9,1,1,0,0,0-1,1,.89.89,0,0,0,.9.92m-2.29,5.48c0-1.22-1-1.6-2-1.9s-1.57-.5-1.57-1.18a.73.73,0,0,1,.81-.7,2.75,2.75,0,0,1,2,1.2l.34-.16-.5-1.62h-.21l-.24.2a3,3,0,0,0-1.23-.25,2,2,0,0,0-2.28,2c0,1.22,1,1.57,1.94,1.88s1.57.5,1.57,1.19c0,.44-.32.76-.95.76-.88,0-1.54-.57-2.34-1.59l-.36.13.51,2h.23l.38-.28a3.26,3.26,0,0,0,1.45.33,2.18,2.18,0,0,0,2.43-2.05M74,163.2c-.85-.13-1-.31-1-1.12v-2.69a3.8,3.8,0,0,1,.77-1,.79.79,0,0,0,.8.84.93.93,0,0,0,.88-1,.85.85,0,0,0-.91-.93c-.64,0-1.13.54-1.61,1.3v-1.32h-.57l-1.9,1.24v.29h.91v3.48c0,.72-.12.9-.87,1v.41H74Zm-8.19-3.55c0-1.06.45-1.69,1.31-1.69.6,0,1,.43,1.14,1.28l-2.44.84c0-.15,0-.29,0-.43m4.09,2.78-.35-.27a2,2,0,0,1-1.5.68c-1.21,0-1.89-.92-2.13-2.11l3.92-1.31a2.21,2.21,0,0,0-2.39-2.14,3.17,3.17,0,0,0-3.16,3.28,3,3,0,0,0,3.18,3.18,2.6,2.6,0,0,0,2.43-1.31m-6.85-3.21c.49-1.08.64-1.31,1.15-1.44v-.37H61.66v.37c.85.18.94.61.55,1.53l-1,2.36L60,158.89c-.26-.62-.22-1,.68-1.07v-.41H57.22v.41c.41.1.58.27.92,1l2.23,4.85h.68Zm-6,4c-.82-.11-.93-.28-.93-1v-5h-.64l-1.93,1.25v.29h.93v3.47c0,.72-.13.89-.93,1v.41h3.5Zm-1.86-7a1,1,0,0,0,1-1,.88.88,0,0,0-.89-.9,1,1,0,0,0-1,1,.89.89,0,0,0,.9.92m-6.61,7c-.74-.1-.86-.28-.86-1v-3a2.72,2.72,0,0,1,1.66-.88c.64,0,.83.33.83.92v3c0,.72-.12.9-.87,1v.41h3.36v-.41c-.74-.1-.86-.28-.86-1v-3.13a1.56,1.56,0,0,0-1.76-1.79,4,4,0,0,0-2.4,1.16v-1.25h-.6l-1.9,1.24v.29h.91v3.48c0,.72-.12.9-.87,1v.41h3.36Zm-14.25-7.69v3.93c0,2.53,1.32,4.3,4.66,4.3s4.65-1.77,4.65-4.25v-3.15c0-1.53.43-1.92,1.18-2.13v-.41H41.71v.41c.75.21,1.18.6,1.18,2.13v3.15c0,2.21-1.16,3.23-3.36,3.23s-3.36-1-3.36-3.23v-4c0-1,.29-1.16,1.11-1.28v-.43h-4v.43c.82.12,1.08.29,1.08,1.28" transform="translate(-33 -57.94)"/><path d="M109.89,149c-.75-.11-.87-.29-.87-1v-3a2.72,2.72,0,0,1,1.66-.88c.64,0,.83.33.83.92v3c0,.72-.12.9-.87,1v.4H114V149c-.74-.11-.86-.29-.86-1V144.9a1.57,1.57,0,0,0-1.76-1.79,4,4,0,0,0-2.4,1.17V143h-.6l-1.9,1.24v.29h.91V148c0,.72-.12.9-.87,1v.4h3.37Zm-5.21,0c-.85-.13-1-.32-1-1.13v-2.69a4.13,4.13,0,0,1,.77-1.05.79.79,0,0,0,.8.84.92.92,0,0,0,.88-1,.84.84,0,0,0-.9-.93c-.64,0-1.14.53-1.61,1.29V143h-.58l-1.89,1.24v.29h.9V148c0,.72-.12.9-.86,1v.4h3.46Zm-8.19-3.56c0-1.06.45-1.69,1.31-1.69.6,0,1,.43,1.14,1.28l-2.43.84a3.1,3.1,0,0,1,0-.43m4.1,2.78-.36-.27a2,2,0,0,1-1.5.68c-1.2,0-1.88-.92-2.13-2.11l3.92-1.3a2.21,2.21,0,0,0-2.39-2.15A3.17,3.17,0,0,0,95,146.39a3,3,0,0,0,3.18,3.18,2.61,2.61,0,0,0,2.43-1.31m-6,.59-.2-.42a2.33,2.33,0,0,1-.94.24c-.62,0-.77-.31-.77-.75V144H94.3v-.75H92.64V142H92.4l-2.35,1.54V144h1v4.27c0,.85.49,1.31,1.44,1.31a3.52,3.52,0,0,0,2.11-.72m-5-1.33c0-1.22-1-1.6-1.95-1.9s-1.57-.49-1.57-1.17a.73.73,0,0,1,.82-.71,2.79,2.79,0,0,1,2,1.2l.34-.15-.5-1.63h-.21l-.23.2a3.11,3.11,0,0,0-1.23-.25,2,2,0,0,0-2.29,2c0,1.22,1,1.57,2,1.89s1.57.49,1.57,1.19c0,.43-.33.75-1,.75-.88,0-1.54-.57-2.34-1.59l-.35.13.51,2h.22l.38-.27a3.39,3.39,0,0,0,1.45.32,2.18,2.18,0,0,0,2.43-2m-10.07.25c0-.67.3-1,1.83-1.4v1.89a1.61,1.61,0,0,1-1,.42c-.51,0-.81-.27-.81-.91m2.88,1.75A2.92,2.92,0,0,0,84,149l-.12-.36c-.64.12-.88,0-.88-.41v-3.49c0-1.05-.46-1.61-1.93-1.61-1.66,0-2.88.89-2.88,1.73a.71.71,0,0,0,.75.74.85.85,0,0,0,.87-.7.88.88,0,0,0-.25-.88,2.25,2.25,0,0,1,1-.23c.56,0,.83.19.83.7v1.31c-2.34.58-3.41,1.09-3.41,2.33a1.4,1.4,0,0,0,1.58,1.46,3.28,3.28,0,0,0,1.93-.73.84.84,0,0,0,1,.68m-9.27-4c0-1.06.44-1.69,1.31-1.69.6,0,1,.43,1.13,1.28l-2.43.84c0-.14,0-.29,0-.43m4.09,2.78-.35-.27a2,2,0,0,1-1.51.68c-1.2,0-1.88-.92-2.13-2.11l3.93-1.3a2.22,2.22,0,0,0-2.4-2.15,3.17,3.17,0,0,0-3.15,3.28,3,3,0,0,0,3.18,3.18,2.6,2.6,0,0,0,2.43-1.31M66.82,149c-.74-.11-.86-.29-.86-1v-3a2.5,2.5,0,0,1,1.66-.87c.64,0,.82.33.82.92v3c0,.72-.11.9-.86,1v.4h3.36V149c-.74-.11-.86-.29-.86-1V144.9a1.58,1.58,0,0,0-1.77-1.79A3.85,3.85,0,0,0,66,144.24v-5.18h-.49l-2.1,1.37v.29h.95V148c0,.72-.11.9-.86,1v.4h3.36Zm-3.75-.19-.2-.42a2.29,2.29,0,0,1-.94.24c-.61,0-.77-.31-.77-.75V144h1.66v-.75H61.16V142h-.24l-2.35,1.54V144h1v4.27c0,.85.49,1.31,1.44,1.31a3.52,3.52,0,0,0,2.11-.72m-6.41.19c-.85-.13-1-.32-1-1.13v-2.69a4.14,4.14,0,0,1,.78-1.05.79.79,0,0,0,.79.84.92.92,0,0,0,.88-1,.84.84,0,0,0-.9-.93c-.64,0-1.14.53-1.61,1.29V143h-.58l-1.89,1.24v.29h.9V148c0,.72-.12.9-.86,1v.4h3.46Zm-9.44-3.36c0-1.18.51-1.93,1.58-1.93,1.39,0,1.79,1.7,1.79,3.26,0,1.18-.51,1.92-1.58,1.92-1.39,0-1.79-1.7-1.79-3.25m5,.58A3,3,0,0,0,49,143.11a3.23,3.23,0,0,0-3.39,3.31,3,3,0,0,0,3.26,3.15,3.23,3.23,0,0,0,3.39-3.31m-8.53-4.09c0-1.53.43-1.92,1.18-2.13v-.41H41.71V140c.75.21,1.18.6,1.18,2.13v4.6L36.22,140c-.36-.37-.51-.41-.74-.41H33V140a2.28,2.28,0,0,1,1.47.85,1,1,0,0,1,.38.77v5.24c0,1.53-.43,1.93-1.18,2.14v.4h3.17V149c-.75-.21-1.18-.61-1.18-2.14V142l7.51,7.55h.53Z" transform="translate(-33 -57.94)"/></svg>